<svg xmlns="http://www.w3.org/2000/svg" width="1200" height="675" viewBox="0 0 1200 675" role="img" aria-label="DLNA / AirPlay 投屏：把本地音乐推到音箱">
  <defs>
    <linearGradient id="bg" x1="0" y1="0" x2="1" y2="1">
      <stop offset="0" stop-color="#1b1b19" />
      <stop offset="1" stop-color="#141413" />
    </linearGradient>
    <radialGradient id="glow" cx="0.82" cy="0.18" r="0.7">
      <stop offset="0" stop-color="hsl(290 55% 55%)" stop-opacity="0.30" />
      <stop offset="1" stop-color="hsl(290 55% 55%)" stop-opacity="0" />
    </radialGradient>
  </defs>
  <rect width="1200" height="675" fill="url(#bg)" />
  <rect width="1200" height="675" fill="url(#glow)" />
  <circle cx="191.0" cy="279.0" r="0.77" fill="#ffffff" opacity="0.067" /><circle cx="543.3" cy="134.8" r="1.59" fill="#ffffff" opacity="0.109" /><circle cx="719.0" cy="434.2" r="0.80" fill="#ffffff" opacity="0.247" /><circle cx="541.2" cy="207.9" r="1.82" fill="#ffffff" opacity="0.139" /><circle cx="731.9" cy="168.1" r="0.61" fill="#ffffff" opacity="0.217" /><circle cx="1013.7" cy="63.6" r="0.76" fill="#ffffff" opacity="0.225" /><circle cx="547.5" cy="198.9" r="1.19" fill="#ffffff" opacity="0.188" /><circle cx="83.8" cy="398.2" r="0.63" fill="#ffffff" opacity="0.172" /><circle cx="841.2" cy="235.6" r="1.01" fill="#ffffff" opacity="0.224" /><circle cx="363.7" cy="147.8" r="1.76" fill="#ffffff" opacity="0.251" /><circle cx="458.6" cy="614.2" r="1.48" fill="#ffffff" opacity="0.201" /><circle cx="491.8" cy="539.1" r="1.83" fill="#ffffff" opacity="0.181" /><circle cx="801.3" cy="67.1" r="1.42" fill="#ffffff" opacity="0.099" /><circle cx="683.1" cy="252.2" r="1.48" fill="#ffffff" opacity="0.210" /><circle cx="267.0" cy="295.1" r="1.23" fill="#ffffff" opacity="0.203" /><circle cx="1099.7" cy="200.4" r="1.83" fill="#ffffff" opacity="0.169" /><circle cx="265.7" cy="417.7" r="0.71" fill="#ffffff" opacity="0.217" /><circle cx="52.3" cy="93.4" r="0.73" fill="#ffffff" opacity="0.119" /><circle cx="901.7" cy="621.9" r="0.97" fill="#ffffff" opacity="0.128" /><circle cx="1039.2" cy="530.9" r="0.95" fill="#ffffff" opacity="0.245" /><circle cx="31.3" cy="19.6" r="1.17" fill="#ffffff" opacity="0.176" /><circle cx="516.9" cy="152.1" r="1.15" fill="#ffffff" opacity="0.209" /><circle cx="709.2" cy="341.3" r="1.97" fill="#ffffff" opacity="0.110" /><circle cx="914.0" cy="674.7" r="0.87" fill="#ffffff" opacity="0.093" /><circle cx="949.9" cy="510.8" r="0.81" fill="#ffffff" opacity="0.124" /><circle cx="259.3" cy="231.9" r="0.83" fill="#ffffff" opacity="0.185" /><circle cx="272.9" cy="49.8" r="0.62" fill="#ffffff" opacity="0.166" /><circle cx="311.8" cy="314.1" r="0.78" fill="#ffffff" opacity="0.101" /><circle cx="86.8" cy="579.2" r="1.32" fill="#ffffff" opacity="0.101" /><circle cx="473.6" cy="70.4" r="1.96" fill="#ffffff" opacity="0.096" /><circle cx="342.2" cy="354.2" r="1.65" fill="#ffffff" opacity="0.103" /><circle cx="1154.4" cy="625.8" r="0.92" fill="#ffffff" opacity="0.162" /><circle cx="1017.6" cy="273.9" r="1.58" fill="#ffffff" opacity="0.246" /><circle cx="137.6" cy="299.7" r="1.25" fill="#ffffff" opacity="0.047" /><circle cx="1128.4" cy="447.8" r="0.46" fill="#ffffff" opacity="0.070" /><circle cx="413.6" cy="472.7" r="1.78" fill="#ffffff" opacity="0.080" /><circle cx="240.2" cy="580.7" r="0.91" fill="#ffffff" opacity="0.249" /><circle cx="1159.6" cy="131.1" r="0.88" fill="#ffffff" opacity="0.255" /><circle cx="1102.9" cy="121.0" r="1.38" fill="#ffffff" opacity="0.075" /><circle cx="142.8" cy="118.8" r="1.29" fill="#ffffff" opacity="0.051" /><circle cx="203.7" cy="121.2" r="0.83" fill="#ffffff" opacity="0.056" /><circle cx="153.4" cy="533.8" r="0.58" fill="#ffffff" opacity="0.188" /><circle cx="1075.7" cy="448.1" r="1.80" fill="#ffffff" opacity="0.176" /><circle cx="188.8" cy="346.8" r="0.91" fill="#ffffff" opacity="0.192" /><circle cx="96.7" cy="504.1" r="1.83" fill="#ffffff" opacity="0.154" /><circle cx="502.0" cy="50.7" r="1.35" fill="#ffffff" opacity="0.095" /><circle cx="639.7" cy="670.6" r="0.60" fill="#ffffff" opacity="0.242" /><circle cx="921.6" cy="611.3" r="1.61" fill="#ffffff" opacity="0.121" /><circle cx="1056.5" cy="538.1" r="1.07" fill="#ffffff" opacity="0.195" /><circle cx="725.2" cy="193.8" r="0.88" fill="#ffffff" opacity="0.137" /><circle cx="363.6" cy="229.9" r="0.95" fill="#ffffff" opacity="0.097" /><circle cx="324.2" cy="552.6" r="0.55" fill="#ffffff" opacity="0.252" /><circle cx="722.2" cy="178.4" r="0.51" fill="#ffffff" opacity="0.169" /><circle cx="818.6" cy="357.1" r="0.69" fill="#ffffff" opacity="0.055" /><circle cx="1059.8" cy="23.5" r="1.35" fill="#ffffff" opacity="0.141" /><circle cx="896.8" cy="208.1" r="1.14" fill="#ffffff" opacity="0.138" /><circle cx="857.4" cy="410.0" r="1.72" fill="#ffffff" opacity="0.214" /><circle cx="1171.9" cy="24.2" r="0.42" fill="#ffffff" opacity="0.064" /><circle cx="476.6" cy="112.8" r="1.23" fill="#ffffff" opacity="0.249" /><circle cx="715.5" cy="670.9" r="0.40" fill="#ffffff" opacity="0.213" /><circle cx="862.6" cy="389.9" r="0.87" fill="#ffffff" opacity="0.120" /><circle cx="292.9" cy="248.5" r="0.52" fill="#ffffff" opacity="0.226" /><circle cx="332.8" cy="544.9" r="1.78" fill="#ffffff" opacity="0.140" /><circle cx="461.3" cy="659.3" r="1.87" fill="#ffffff" opacity="0.098" /><circle cx="543.8" cy="531.9" r="1.05" fill="#ffffff" opacity="0.135" /><circle cx="477.8" cy="493.6" r="0.79" fill="#ffffff" opacity="0.211" /><circle cx="144.6" cy="524.9" r="1.03" fill="#ffffff" opacity="0.241" /><circle cx="711.8" cy="108.3" r="0.73" fill="#ffffff" opacity="0.128" /><circle cx="912.4" cy="58.0" r="1.30" fill="#ffffff" opacity="0.164" /><circle cx="342.0" cy="139.9" r="0.68" fill="#ffffff" opacity="0.086" /><circle cx="236.6" cy="247.8" r="0.93" fill="#ffffff" opacity="0.207" /><circle cx="458.4" cy="412.5" r="0.81" fill="#ffffff" opacity="0.221" /><circle cx="397.1" cy="162.3" r="0.44" fill="#ffffff" opacity="0.102" /><circle cx="173.1" cy="479.6" r="1.34" fill="#ffffff" opacity="0.193" /><circle cx="675.1" cy="617.0" r="1.30" fill="#ffffff" opacity="0.176" /><circle cx="402.6" cy="160.5" r="1.10" fill="#ffffff" opacity="0.214" /><circle cx="195.0" cy="202.4" r="0.96" fill="#ffffff" opacity="0.213" /><circle cx="184.0" cy="75.9" r="1.71" fill="#ffffff" opacity="0.177" /><circle cx="711.4" cy="267.2" r="0.96" fill="#ffffff" opacity="0.204" /><circle cx="553.7" cy="355.8" r="1.33" fill="#ffffff" opacity="0.109" />
  <circle cx="1053.5" cy="138.5" r="122.17999999999999" fill="#cc785c" fill-opacity="0.10" />
  <circle cx="1053.5" cy="138.5" r="122.17999999999999" fill="none" stroke="#cc785c" stroke-opacity="0.28" stroke-width="2" />
  <g transform="translate(979 64) scale(6.2083)" fill="none" stroke="#cc785c" stroke-width="2" stroke-linecap="round" stroke-linejoin="round" opacity="0.92"><path d="M2 8V6a2 2 0 0 1 2-2h16a2 2 0 0 1 2 2v12a2 2 0 0 1-2 2h-6" /><path d="M2 12a9 9 0 0 1 8 8" /><path d="M2 16a5 5 0 0 1 4 4" /><line x1="2" x2="2.01" y1="20" y2="20" /></g>
  <text x="84" y="104" font-family="Inter, 'Noto Sans SC', 'Microsoft YaHei', 'PingFang SC', 'Source Han Sans SC', sans-serif" font-size="30" font-weight="600" letter-spacing="2" fill="#cc785c">工程笔记</text>
<rect x="84" y="118" width="54" height="4" rx="2" fill="#cc785c" />
  <text x="84" y="168" font-family="Inter, 'Noto Sans SC', 'Microsoft YaHei', 'PingFang SC', 'Source Han Sans SC', sans-serif" font-size="60" font-weight="700" fill="#f5f3ef">DLNA / AirPlay </text>
<text x="84" y="241.2" font-family="Inter, 'Noto Sans SC', 'Microsoft YaHei', 'PingFang SC', 'Source Han Sans SC', sans-serif" font-size="60" font-weight="700" fill="#f5f3ef">投屏：把本地音乐推到音箱</text>
  <text x="84" y="342.4" font-family="Inter, 'Noto Sans SC', 'Microsoft YaHei', 'PingFang SC', 'Source Han Sans SC', sans-serif" font-size="30" fill="#b8b2a8">本地播放器不该被束缚在耳机里。记录星璃怎么用 D</text>
  <line x1="84" y1="599" x2="1116" y2="599" stroke="#ffffff" stroke-opacity="0.08" stroke-width="1" />
<text x="84" y="621" font-family="Inter, 'Noto Sans SC', 'Microsoft YaHei', 'PingFang SC', 'Source Han Sans SC', sans-serif" font-size="26" font-weight="700" fill="#cc785c">Stelarith</text>
<text x="202" y="621" font-family="Inter, 'Noto Sans SC', 'Microsoft YaHei', 'PingFang SC', 'Source Han Sans SC', sans-serif" font-size="22" fill="#8c857a">· 无限音乐画布</text>
</svg>