<svg xmlns="http://www.w3.org/2000/svg" width="1200" height="675" viewBox="0 0 1200 675" role="img" aria-label="小模型本地歌单策展：不收集数据也能懂你">
  <defs>
    <linearGradient id="bg" x1="0" y1="0" x2="1" y2="1">
      <stop offset="0" stop-color="#1b1b19" />
      <stop offset="1" stop-color="#141413" />
    </linearGradient>
    <radialGradient id="glow" cx="0.82" cy="0.18" r="0.7">
      <stop offset="0" stop-color="hsl(303 55% 55%)" stop-opacity="0.30" />
      <stop offset="1" stop-color="hsl(303 55% 55%)" stop-opacity="0" />
    </radialGradient>
  </defs>
  <rect width="1200" height="675" fill="url(#bg)" />
  <rect width="1200" height="675" fill="url(#glow)" />
  <circle cx="509.8" cy="7.9" r="0.71" fill="#ffffff" opacity="0.171" /><circle cx="858.2" cy="522.7" r="0.62" fill="#ffffff" opacity="0.159" /><circle cx="569.4" cy="380.4" r="1.31" fill="#ffffff" opacity="0.135" /><circle cx="386.6" cy="402.0" r="1.09" fill="#ffffff" opacity="0.082" /><circle cx="905.6" cy="200.3" r="0.89" fill="#ffffff" opacity="0.213" /><circle cx="124.6" cy="606.9" r="1.13" fill="#ffffff" opacity="0.070" /><circle cx="183.3" cy="229.5" r="1.76" fill="#ffffff" opacity="0.060" /><circle cx="1056.7" cy="78.1" r="1.61" fill="#ffffff" opacity="0.072" /><circle cx="485.5" cy="68.7" r="1.55" fill="#ffffff" opacity="0.104" /><circle cx="666.3" cy="647.9" r="1.46" fill="#ffffff" opacity="0.070" /><circle cx="1009.5" cy="371.1" r="1.85" fill="#ffffff" opacity="0.252" /><circle cx="618.0" cy="193.1" r="1.40" fill="#ffffff" opacity="0.219" /><circle cx="1012.5" cy="581.0" r="0.91" fill="#ffffff" opacity="0.224" /><circle cx="979.4" cy="344.2" r="0.53" fill="#ffffff" opacity="0.241" /><circle cx="584.1" cy="563.7" r="1.62" fill="#ffffff" opacity="0.248" /><circle cx="688.1" cy="616.3" r="1.24" fill="#ffffff" opacity="0.245" /><circle cx="741.5" cy="239.6" r="0.57" fill="#ffffff" opacity="0.093" /><circle cx="925.6" cy="105.0" r="0.74" fill="#ffffff" opacity="0.071" /><circle cx="691.2" cy="450.0" r="0.72" fill="#ffffff" opacity="0.255" /><circle cx="391.2" cy="362.3" r="0.52" fill="#ffffff" opacity="0.084" /><circle cx="104.6" cy="633.0" r="1.19" fill="#ffffff" opacity="0.196" /><circle cx="792.6" cy="601.8" r="1.64" fill="#ffffff" opacity="0.081" /><circle cx="1121.5" cy="10.7" r="1.28" fill="#ffffff" opacity="0.142" /><circle cx="749.6" cy="390.7" r="0.90" fill="#ffffff" opacity="0.249" /><circle cx="58.9" cy="211.2" r="0.60" fill="#ffffff" opacity="0.047" /><circle cx="558.8" cy="588.6" r="1.71" fill="#ffffff" opacity="0.213" /><circle cx="1022.8" cy="601.8" r="1.17" fill="#ffffff" opacity="0.194" /><circle cx="719.4" cy="232.4" r="1.19" fill="#ffffff" opacity="0.050" /><circle cx="224.2" cy="167.3" r="0.51" fill="#ffffff" opacity="0.218" /><circle cx="1103.8" cy="521.3" r="1.48" fill="#ffffff" opacity="0.062" /><circle cx="976.0" cy="275.5" r="0.77" fill="#ffffff" opacity="0.212" /><circle cx="104.1" cy="257.6" r="0.67" fill="#ffffff" opacity="0.227" /><circle cx="952.4" cy="663.9" r="1.51" fill="#ffffff" opacity="0.059" /><circle cx="247.2" cy="598.7" r="0.83" fill="#ffffff" opacity="0.179" /><circle cx="620.7" cy="461.4" r="0.87" fill="#ffffff" opacity="0.044" /><circle cx="373.7" cy="214.9" r="1.74" fill="#ffffff" opacity="0.079" /><circle cx="395.9" cy="306.3" r="1.09" fill="#ffffff" opacity="0.144" /><circle cx="438.6" cy="306.8" r="1.61" fill="#ffffff" opacity="0.149" /><circle cx="515.4" cy="57.6" r="1.53" fill="#ffffff" opacity="0.069" /><circle cx="649.2" cy="57.5" r="0.76" fill="#ffffff" opacity="0.066" /><circle cx="260.1" cy="499.7" r="0.71" fill="#ffffff" opacity="0.118" /><circle cx="540.6" cy="591.1" r="0.57" fill="#ffffff" opacity="0.082" /><circle cx="1027.7" cy="381.6" r="1.64" fill="#ffffff" opacity="0.244" /><circle cx="1152.5" cy="129.8" r="0.65" fill="#ffffff" opacity="0.048" /><circle cx="430.0" cy="181.9" r="1.30" fill="#ffffff" opacity="0.213" /><circle cx="143.8" cy="589.8" r="1.09" fill="#ffffff" opacity="0.191" /><circle cx="170.0" cy="509.4" r="0.81" fill="#ffffff" opacity="0.109" /><circle cx="312.6" cy="220.9" r="1.70" fill="#ffffff" opacity="0.145" /><circle cx="50.2" cy="82.6" r="1.30" fill="#ffffff" opacity="0.150" /><circle cx="1074.7" cy="584.9" r="1.83" fill="#ffffff" opacity="0.194" /><circle cx="215.9" cy="337.6" r="1.42" fill="#ffffff" opacity="0.066" /><circle cx="789.1" cy="598.6" r="1.70" fill="#ffffff" opacity="0.139" /><circle cx="692.2" cy="469.7" r="1.96" fill="#ffffff" opacity="0.110" /><circle cx="365.5" cy="355.2" r="1.23" fill="#ffffff" opacity="0.108" /><circle cx="1144.5" cy="119.5" r="1.15" fill="#ffffff" opacity="0.232" /><circle cx="715.9" cy="588.7" r="0.99" fill="#ffffff" opacity="0.053" /><circle cx="469.3" cy="540.9" r="0.68" fill="#ffffff" opacity="0.101" /><circle cx="302.3" cy="303.8" r="0.48" fill="#ffffff" opacity="0.176" /><circle cx="1183.6" cy="71.8" r="0.44" fill="#ffffff" opacity="0.189" /><circle cx="857.4" cy="587.2" r="1.23" fill="#ffffff" opacity="0.134" /><circle cx="521.2" cy="671.6" r="0.74" fill="#ffffff" opacity="0.109" /><circle cx="1190.4" cy="81.6" r="0.97" fill="#ffffff" opacity="0.206" /><circle cx="208.0" cy="429.8" r="0.51" fill="#ffffff" opacity="0.256" /><circle cx="699.2" cy="138.6" r="0.82" fill="#ffffff" opacity="0.260" /><circle cx="378.5" cy="17.1" r="1.81" fill="#ffffff" opacity="0.109" /><circle cx="676.7" cy="48.1" r="1.55" fill="#ffffff" opacity="0.210" /><circle cx="300.7" cy="126.6" r="0.84" fill="#ffffff" opacity="0.169" /><circle cx="681.0" cy="188.3" r="0.52" fill="#ffffff" opacity="0.188" /><circle cx="970.9" cy="194.0" r="1.29" fill="#ffffff" opacity="0.118" /><circle cx="437.5" cy="521.5" r="1.07" fill="#ffffff" opacity="0.222" /><circle cx="981.6" cy="188.9" r="1.48" fill="#ffffff" opacity="0.183" /><circle cx="118.6" cy="89.3" r="1.83" fill="#ffffff" opacity="0.202" /><circle cx="986.1" cy="41.8" r="1.28" fill="#ffffff" opacity="0.072" /><circle cx="723.6" cy="266.3" r="1.73" fill="#ffffff" opacity="0.102" /><circle cx="228.2" cy="160.1" r="1.69" fill="#ffffff" opacity="0.131" /><circle cx="1020.0" cy="573.8" r="1.10" fill="#ffffff" opacity="0.221" /><circle cx="557.2" cy="261.8" r="1.31" fill="#ffffff" opacity="0.161" /><circle cx="415.1" cy="148.6" r="1.59" fill="#ffffff" opacity="0.223" /><circle cx="208.5" cy="637.6" r="0.60" fill="#ffffff" opacity="0.149" /><circle cx="512.6" cy="306.5" r="1.61" fill="#ffffff" opacity="0.103" />
  <circle cx="1053.5" cy="138.5" r="122.17999999999999" fill="#cc785c" fill-opacity="0.10" />
  <circle cx="1053.5" cy="138.5" r="122.17999999999999" fill="none" stroke="#cc785c" stroke-opacity="0.28" stroke-width="2" />
  <g transform="translate(979 64) scale(6.2083)" fill="none" stroke="#cc785c" stroke-width="2" stroke-linecap="round" stroke-linejoin="round" opacity="0.92"><path d="M16 5H3" /><path d="M11 12H3" /><path d="M11 19H3" /><path d="M21 16V5" /><circle cx="18" cy="16" r="3" /></g>
  <text x="84" y="104" font-family="Inter, 'Noto Sans SC', 'Microsoft YaHei', 'PingFang SC', 'Source Han Sans SC', sans-serif" font-size="30" font-weight="600" letter-spacing="2" fill="#cc785c">工程笔记</text>
<rect x="84" y="118" width="54" height="4" rx="2" fill="#cc785c" />
  <text x="84" y="168" font-family="Inter, 'Noto Sans SC', 'Microsoft YaHei', 'PingFang SC', 'Source Han Sans SC', sans-serif" font-size="60" font-weight="700" fill="#f5f3ef">能懂你</text>
  <text x="84" y="269.2" font-family="Inter, 'Noto Sans SC', 'Microsoft YaHei', 'PingFang SC', 'Source Han Sans SC', sans-serif" font-size="30" fill="#b8b2a8">&quot;星璃&quot;会思考&quot;的方式之一，是本地小模型驱动的歌</text>
  <line x1="84" y1="599" x2="1116" y2="599" stroke="#ffffff" stroke-opacity="0.08" stroke-width="1" />
<text x="84" y="621" font-family="Inter, 'Noto Sans SC', 'Microsoft YaHei', 'PingFang SC', 'Source Han Sans SC', sans-serif" font-size="26" font-weight="700" fill="#cc785c">Stelarith</text>
<text x="202" y="621" font-family="Inter, 'Noto Sans SC', 'Microsoft YaHei', 'PingFang SC', 'Source Han Sans SC', sans-serif" font-size="22" fill="#8c857a">· 无限音乐画布</text>
</svg>