<svg xmlns="http://www.w3.org/2000/svg" width="1200" height="675" viewBox="0 0 1200 675" role="img" aria-label="设计一套极简联机协议：星型房主 + 一起听广播">
  <defs>
    <linearGradient id="bg" x1="0" y1="0" x2="1" y2="1">
      <stop offset="0" stop-color="#1b1b19" />
      <stop offset="1" stop-color="#141413" />
    </linearGradient>
    <radialGradient id="glow" cx="0.82" cy="0.18" r="0.7">
      <stop offset="0" stop-color="hsl(307 55% 55%)" stop-opacity="0.30" />
      <stop offset="1" stop-color="hsl(307 55% 55%)" stop-opacity="0" />
    </radialGradient>
  </defs>
  <rect width="1200" height="675" fill="url(#bg)" />
  <rect width="1200" height="675" fill="url(#glow)" />
  <circle cx="954.2" cy="297.4" r="1.53" fill="#ffffff" opacity="0.090" /><circle cx="755.1" cy="320.9" r="1.37" fill="#ffffff" opacity="0.191" /><circle cx="773.2" cy="228.3" r="0.48" fill="#ffffff" opacity="0.044" /><circle cx="620.0" cy="258.2" r="1.41" fill="#ffffff" opacity="0.174" /><circle cx="967.1" cy="147.5" r="0.80" fill="#ffffff" opacity="0.091" /><circle cx="201.7" cy="55.8" r="1.65" fill="#ffffff" opacity="0.081" /><circle cx="386.3" cy="357.8" r="1.63" fill="#ffffff" opacity="0.093" /><circle cx="805.2" cy="354.0" r="0.41" fill="#ffffff" opacity="0.080" /><circle cx="869.4" cy="641.4" r="1.45" fill="#ffffff" opacity="0.110" /><circle cx="501.3" cy="255.1" r="0.76" fill="#ffffff" opacity="0.208" /><circle cx="321.9" cy="200.2" r="0.72" fill="#ffffff" opacity="0.137" /><circle cx="974.6" cy="436.6" r="1.38" fill="#ffffff" opacity="0.190" /><circle cx="670.7" cy="102.5" r="1.29" fill="#ffffff" opacity="0.115" /><circle cx="84.5" cy="420.9" r="1.81" fill="#ffffff" opacity="0.045" /><circle cx="721.1" cy="25.4" r="1.14" fill="#ffffff" opacity="0.043" /><circle cx="756.5" cy="281.6" r="0.84" fill="#ffffff" opacity="0.059" /><circle cx="597.0" cy="411.8" r="1.01" fill="#ffffff" opacity="0.258" /><circle cx="112.9" cy="600.5" r="1.27" fill="#ffffff" opacity="0.190" /><circle cx="1048.9" cy="23.7" r="0.85" fill="#ffffff" opacity="0.063" /><circle cx="518.5" cy="669.4" r="1.87" fill="#ffffff" opacity="0.117" /><circle cx="1176.7" cy="521.0" r="0.70" fill="#ffffff" opacity="0.254" /><circle cx="184.2" cy="256.1" r="1.20" fill="#ffffff" opacity="0.197" /><circle cx="741.6" cy="181.5" r="1.43" fill="#ffffff" opacity="0.188" /><circle cx="1140.6" cy="401.1" r="1.80" fill="#ffffff" opacity="0.231" /><circle cx="1066.5" cy="556.7" r="1.34" fill="#ffffff" opacity="0.066" /><circle cx="781.5" cy="141.0" r="1.30" fill="#ffffff" opacity="0.215" /><circle cx="185.9" cy="502.9" r="1.33" fill="#ffffff" opacity="0.066" /><circle cx="986.9" cy="46.0" r="0.59" fill="#ffffff" opacity="0.108" /><circle cx="1197.7" cy="636.0" r="1.35" fill="#ffffff" opacity="0.153" /><circle cx="272.3" cy="290.9" r="1.68" fill="#ffffff" opacity="0.040" /><circle cx="448.9" cy="277.0" r="1.47" fill="#ffffff" opacity="0.076" /><circle cx="708.8" cy="37.9" r="1.88" fill="#ffffff" opacity="0.236" /><circle cx="274.7" cy="373.1" r="1.51" fill="#ffffff" opacity="0.139" /><circle cx="738.3" cy="660.3" r="1.36" fill="#ffffff" opacity="0.063" /><circle cx="186.3" cy="242.8" r="0.76" fill="#ffffff" opacity="0.076" /><circle cx="359.5" cy="604.0" r="1.97" fill="#ffffff" opacity="0.236" /><circle cx="217.7" cy="179.8" r="0.41" fill="#ffffff" opacity="0.065" /><circle cx="844.3" cy="231.4" r="1.17" fill="#ffffff" opacity="0.219" /><circle cx="1061.5" cy="200.7" r="1.77" fill="#ffffff" opacity="0.225" /><circle cx="956.7" cy="183.0" r="1.76" fill="#ffffff" opacity="0.085" /><circle cx="534.8" cy="613.8" r="1.84" fill="#ffffff" opacity="0.091" /><circle cx="576.7" cy="404.9" r="1.85" fill="#ffffff" opacity="0.150" /><circle cx="814.4" cy="127.9" r="0.62" fill="#ffffff" opacity="0.132" /><circle cx="1123.4" cy="428.0" r="0.81" fill="#ffffff" opacity="0.133" /><circle cx="329.0" cy="320.2" r="1.47" fill="#ffffff" opacity="0.065" /><circle cx="1040.6" cy="427.6" r="1.72" fill="#ffffff" opacity="0.051" /><circle cx="568.5" cy="220.4" r="0.89" fill="#ffffff" opacity="0.050" /><circle cx="77.7" cy="529.1" r="1.14" fill="#ffffff" opacity="0.042" /><circle cx="912.5" cy="567.6" r="0.76" fill="#ffffff" opacity="0.082" /><circle cx="1168.2" cy="524.9" r="1.55" fill="#ffffff" opacity="0.042" /><circle cx="266.8" cy="289.4" r="1.05" fill="#ffffff" opacity="0.122" /><circle cx="1096.1" cy="554.7" r="1.24" fill="#ffffff" opacity="0.118" /><circle cx="726.9" cy="351.0" r="1.92" fill="#ffffff" opacity="0.189" /><circle cx="1059.9" cy="237.1" r="1.80" fill="#ffffff" opacity="0.059" /><circle cx="750.3" cy="29.8" r="1.29" fill="#ffffff" opacity="0.129" /><circle cx="187.9" cy="479.1" r="1.93" fill="#ffffff" opacity="0.250" /><circle cx="263.4" cy="86.4" r="1.28" fill="#ffffff" opacity="0.075" /><circle cx="450.3" cy="495.6" r="0.59" fill="#ffffff" opacity="0.114" /><circle cx="680.6" cy="88.7" r="1.02" fill="#ffffff" opacity="0.234" /><circle cx="589.7" cy="596.6" r="1.11" fill="#ffffff" opacity="0.077" /><circle cx="749.4" cy="229.0" r="1.81" fill="#ffffff" opacity="0.152" /><circle cx="1076.3" cy="491.3" r="1.33" fill="#ffffff" opacity="0.101" /><circle cx="1172.4" cy="161.9" r="1.32" fill="#ffffff" opacity="0.244" /><circle cx="232.6" cy="660.7" r="0.57" fill="#ffffff" opacity="0.236" /><circle cx="276.7" cy="188.2" r="0.68" fill="#ffffff" opacity="0.091" /><circle cx="26.6" cy="630.8" r="1.95" fill="#ffffff" opacity="0.086" /><circle cx="941.5" cy="654.6" r="1.71" fill="#ffffff" opacity="0.184" /><circle cx="1176.4" cy="67.2" r="1.99" fill="#ffffff" opacity="0.237" /><circle cx="1196.5" cy="88.0" r="1.91" fill="#ffffff" opacity="0.228" /><circle cx="442.6" cy="49.1" r="0.56" fill="#ffffff" opacity="0.134" /><circle cx="965.9" cy="462.2" r="1.59" fill="#ffffff" opacity="0.178" /><circle cx="1074.0" cy="604.9" r="1.78" fill="#ffffff" opacity="0.223" /><circle cx="925.6" cy="2.5" r="1.49" fill="#ffffff" opacity="0.143" /><circle cx="769.5" cy="418.4" r="0.67" fill="#ffffff" opacity="0.125" /><circle cx="298.3" cy="672.8" r="1.49" fill="#ffffff" opacity="0.139" /><circle cx="877.1" cy="469.5" r="0.99" fill="#ffffff" opacity="0.183" /><circle cx="725.7" cy="30.5" r="1.20" fill="#ffffff" opacity="0.155" /><circle cx="658.2" cy="364.9" r="1.33" fill="#ffffff" opacity="0.259" /><circle cx="422.8" cy="128.4" r="1.98" fill="#ffffff" opacity="0.041" /><circle cx="238.6" cy="256.9" r="1.81" fill="#ffffff" opacity="0.118" />
  <circle cx="1053.5" cy="138.5" r="122.17999999999999" fill="#cc785c" fill-opacity="0.10" />
  <circle cx="1053.5" cy="138.5" r="122.17999999999999" fill="none" stroke="#cc785c" stroke-opacity="0.28" stroke-width="2" />
  <g transform="translate(979 64) scale(6.2083)" fill="none" stroke="#cc785c" stroke-width="2" stroke-linecap="round" stroke-linejoin="round" opacity="0.92"><circle cx="18" cy="5" r="3" /><circle cx="6" cy="12" r="3" /><circle cx="18" cy="19" r="3" /><line x1="8.59" x2="15.42" y1="13.51" y2="17.49" /><line x1="15.41" x2="8.59" y1="6.51" y2="10.49" /></g>
  <text x="84" y="104" font-family="Inter, 'Noto Sans SC', 'Microsoft YaHei', 'PingFang SC', 'Source Han Sans SC', sans-serif" font-size="30" font-weight="600" letter-spacing="2" fill="#cc785c">工程笔记</text>
<rect x="84" y="118" width="54" height="4" rx="2" fill="#cc785c" />
  <text x="84" y="168" font-family="Inter, 'Noto Sans SC', 'Microsoft YaHei', 'PingFang SC', 'Source Han Sans SC', sans-serif" font-size="60" font-weight="700" fill="#f5f3ef">设计一套极简联机协议：星型房主 + </text>
<text x="84" y="241.2" font-family="Inter, 'Noto Sans SC', 'Microsoft YaHei', 'PingFang SC', 'Source Han Sans SC', sans-serif" font-size="60" font-weight="700" fill="#f5f3ef">一起听广播</text>
  <text x="84" y="342.4" font-family="Inter, 'Noto Sans SC', 'Microsoft YaHei', 'PingFang SC', 'Source Han Sans SC', sans-serif" font-size="30" fill="#b8b2a8">联机不必上来就上 WebRTC、上信令服务器。记</text>
  <line x1="84" y1="599" x2="1116" y2="599" stroke="#ffffff" stroke-opacity="0.08" stroke-width="1" />
<text x="84" y="621" font-family="Inter, 'Noto Sans SC', 'Microsoft YaHei', 'PingFang SC', 'Source Han Sans SC', sans-serif" font-size="26" font-weight="700" fill="#cc785c">Stelarith</text>
<text x="202" y="621" font-family="Inter, 'Noto Sans SC', 'Microsoft YaHei', 'PingFang SC', 'Source Han Sans SC', sans-serif" font-size="22" fill="#8c857a">· 无限音乐画布</text>
</svg>